<?xml version="1.0" encoding="UTF-8"?>
<svg width="512px" height="536px" viewBox="0 0 512 536" version="1.1" xmlns="http://www.w3.org/2000/svg" xmlns:xlink="http://www.w3.org/1999/xlink">
    <!-- Generator: Sketch 51.3 (57544) - http://www.bohemiancoding.com/sketch -->
    <title>android</title>
    <desc>Created with Sketch.</desc>
    <defs></defs>
    <g id="Page-1" stroke="none" stroke-width="1" fill="none" fill-rule="evenodd">
        <g id="android" fill="#000000" fill-rule="nonzero">
            <path d="M139.485405,196.367389 C145.38955,196.367389 150.463423,194.24699 154.707027,190.006192 C158.950631,185.765394 161.072432,180.694874 161.072432,174.794634 C161.072432,168.894393 158.950631,163.823873 154.707027,159.583075 C150.463423,155.342277 145.38955,153.221878 139.485405,153.221878 C133.581261,153.221878 128.59964,155.342277 124.540541,159.583075 C120.481441,163.823873 118.451892,168.894393 118.451892,174.794634 C118.451892,180.694874 120.481441,185.765394 124.540541,190.006192 C128.59964,194.24699 133.581261,196.367389 139.485405,196.367389 Z M373.068108,196.367389 C378.972252,196.367389 383.953874,194.24699 388.012973,190.006192 C392.072072,185.765394 394.101622,180.694874 394.101622,174.794634 C394.101622,168.894393 392.072072,163.823873 388.012973,159.583075 C383.953874,155.342277 378.972252,153.221878 373.068108,153.221878 C367.163964,153.221878 362.09009,155.342277 357.846486,159.583075 C353.602883,163.823873 351.481081,168.894393 351.481081,174.794634 C351.481081,180.694874 353.602883,185.765394 357.846486,190.006192 C362.09009,194.24699 367.163964,196.367389 373.068108,196.367389 Z M510.339459,308.656347 L510.339459,400.478844 C510.339459,411.787639 505.911351,432.069717 497.055135,461.325077 L497.055135,487.323013 C497.055135,503.179911 491.52,516.639835 480.44973,527.702786 C469.379459,538.765738 410.707027,538.765738 399.636757,527.702786 C388.566486,516.639835 383.031351,503.179911 383.031351,487.323013 L383.031351,461.325077 L129.522162,461.325077 L129.522162,487.323013 C129.522162,503.179911 123.987027,516.639835 112.916757,527.702786 C101.846486,538.765738 49.2627027,538.765738 38.1924324,527.702786 C27.1221622,516.639835 21.587027,503.179911 21.587027,487.323013 L21.0335135,461.325077 C12.1772973,432.069717 7.74918919,411.787639 7.74918919,400.478844 L2.21405405,308.656347 L510.339459,308.656347 Z M381.924324,84.6315789 C421.408288,104.913657 452.958559,133.216374 476.575135,169.539732 C500.191712,205.863089 512,245.597523 512,288.743034 L0,288.743034 C0,245.597523 11.8082883,205.863089 35.4248649,169.539732 C59.0414414,133.216374 90.7762162,104.913657 130.629189,84.6315789 L91.3297297,12.1692466 C88.7466667,7.375301 89.6691892,3.6876505 94.0972973,1.10629515 C98.8944144,-1.10629515 102.584505,0 105.167568,4.4251806 L145.020541,77.4406605 C180.076396,61.9525284 217.161802,54.2084623 256.276757,54.2084623 C295.391712,54.2084623 332.477117,61.9525284 367.532973,77.4406605 L407.385946,4.4251806 C409.969009,0 413.659099,-1.10629515 418.456216,1.10629515 C422.884324,3.6876505 423.806847,7.375301 421.223784,12.1692466 L381.924324,84.6315789 Z" id="Shape"></path>
        </g>
    </g>
</svg>