<?xml version="1.0" encoding="UTF-8" standalone="no"?>
<!-- Created with Inkscape (http://www.inkscape.org/) -->

<svg
   xmlns:dc="http://purl.org/dc/elements/1.1/"
   xmlns:cc="http://creativecommons.org/ns#"
   xmlns:rdf="http://www.w3.org/1999/02/22-rdf-syntax-ns#"
   xmlns:svg="http://www.w3.org/2000/svg"
   xmlns="http://www.w3.org/2000/svg"
   xmlns:sodipodi="http://sodipodi.sourceforge.net/DTD/sodipodi-0.dtd"
   xmlns:inkscape="http://www.inkscape.org/namespaces/inkscape"
   width="210mm"
   height="297mm"
   viewBox="0 0 210 297"
   version="1.1"
   id="svg8"
   inkscape:version="0.92.2 5c3e80d, 2017-08-06"
   sodipodi:docname="buggy panel replacement_inkscape.svg">
  <defs
     id="defs2" />
  <sodipodi:namedview
     id="base"
     pagecolor="#ffffff"
     bordercolor="#666666"
     borderopacity="1.0"
     inkscape:pageopacity="0.0"
     inkscape:pageshadow="2"
     inkscape:zoom="1.4"
     inkscape:cx="338.1728"
     inkscape:cy="650.4228"
     inkscape:document-units="mm"
     inkscape:current-layer="layer1"
     showgrid="false"
     inkscape:window-width="2560"
     inkscape:window-height="1342"
     inkscape:window-x="0"
     inkscape:window-y="1"
     inkscape:window-maximized="1" />
  <metadata
     id="metadata5">
    <rdf:RDF>
      <cc:Work
         rdf:about="">
        <dc:format>image/svg+xml</dc:format>
        <dc:type
           rdf:resource="http://purl.org/dc/dcmitype/StillImage" />
        <dc:title></dc:title>
      </cc:Work>
    </rdf:RDF>
  </metadata>
  <g
     inkscape:label="Layer 1"
     inkscape:groupmode="layer"
     id="layer1">
    <g
       id="Page-1"
       transform="matrix(0,0.35239382,-0.34597768,0,188.37895,16.367332)"
       style="fill:none;fill-opacity:0.2;fill-rule:evenodd;stroke:none;stroke-width:1">
      <path
         id="Combined-Shape"
         d="M 508.01465,432.67187 V 361.66894 H 337.84766 v -3.58203 h -37.94629 v 3.58203 H 36.568359 c -24,-13.16536 -35.99999963,-61.47607 -35.99999963,-144.93212 0,-83.45606 11.99999963,-131.234541 35.99999963,-143.335453 H 302.7998 v 3.374024 h 36.91016 V 73.401367 H 511.80078 V 0.80175781 c 66.66667,15.17447919 100,87.15283219 100,215.93506219 0,128.78222 -34.59538,200.76058 -103.78613,215.93505 z M 391,271 v -12 h -18 v 12 h -21 v 18 h 21 v 11 h 18 v -11 h 19 v -18 z m 0,-127 v -12 h -18 v 12 h -21 v 18 h 21 v 11 h 18 v -11 h 19 V 144 Z M 180.01894,258 H 180 v 28 h 0.0189 c 0.25532,3.35622 3.05944,6 6.48106,6 3.42161,0 6.22574,-2.64378 6.48105,-6 H 193 v -28 h -0.0189 c 0.0126,-0.16502 0.0189,-0.33176 0.0189,-0.5 0,-3.58985 -2.91015,-6.5 -6.5,-6.5 -3.58985,0 -6.5,2.91015 -6.5,6.5 0,0.16824 0.006,0.33498 0.0189,0.5 z m -1,-110 H 179 v 28 h 0.0189 c 0.25532,3.35622 3.05944,6 6.48106,6 3.42161,0 6.22574,-2.64378 6.48105,-6 H 192 v -28 h -0.0189 c 0.0126,-0.16502 0.0189,-0.33176 0.0189,-0.5 0,-3.58985 -2.91015,-6.5 -6.5,-6.5 -3.58985,0 -6.5,2.91015 -6.5,6.5 0,0.16824 0.006,0.33498 0.0189,0.5 z M 566.0164,306 c 0.25729,3.90902 3.50948,7 7.4836,7 3.97412,0 7.22631,-3.09098 7.4836,-7 H 581 V 130 h -0.0164 c 0.0109,-0.16526 0.0164,-0.33199 0.0164,-0.5 0,-4.14214 -3.35786,-7.5 -7.5,-7.5 -4.14214,0 -7.5,3.35786 -7.5,7.5 0,0.16801 0.006,0.33474 0.0164,0.5 H 566 V 306 Z M 318,208 v -5 h -40 v 5 h -3 v 18 h 3 v 4 h 40 v -4 h 3 V 208 Z M 563.07371,109.55563 C 563.58679,113.19793 566.71617,116 570.5,116 c 4.14214,0 7.5,-3.35786 7.5,-7.5 0,-1.74761 -0.59773,-3.35562 -1.59991,-4.63073 l 0.52399,-0.30253 -41.45232,-72.837042 C 534.36975,27.958775 531.66363,26 528.5,26 c -4.14214,0 -7.5,3.357864 -7.5,7.5 0,1.118596 0.24488,2.179996 0.68397,3.133515 l -0.0836,0.04823 z m 15.7734,217.45842 C 578.94735,326.52503 579,326.01866 579,325.5 c 0,-4.14214 -3.35786,-7.5 -7.5,-7.5 -1.72477,0 -3.31356,0.58221 -4.58056,1.56081 l -0.12227,-0.0764 -0.23408,0.36949 c -1.07595,0.94157 -1.88038,2.18573 -2.2805,3.5997 l -42.96627,67.82078 C 519.31589,392.62134 518,394.907 518,397.5 c 0,4.14214 3.35786,7.5 7.5,7.5 3.5681,0 6.55424,-2.49166 7.31338,-5.82993 l 0.90073,0.56283 45.80378,-72.2997 z M 521,245 c 15.46397,0 28,-12.53603 28,-28 0,-15.46397 -12.53603,-28 -28,-28 -15.46397,0 -28,12.53603 -28,28 0,15.46397 12.53603,28 28,28 z M 303,130 v 10 h 36 v -10 z m 0,164 v 10 h 36 v -10 z m 128.5,27 c 4.69442,0 8.5,-3.80558 8.5,-8.5 0,-4.69442 -3.80558,-8.5 -8.5,-8.5 -4.69442,0 -8.5,3.80558 -8.5,8.5 0,4.69442 3.80558,8.5 8.5,8.5 z m -142,-55 c 4.69442,0 8.5,-3.80558 8.5,-8.5 0,-4.69442 -3.80558,-8.5 -8.5,-8.5 -4.69442,0 -8.5,3.80558 -8.5,8.5 0,4.69442 3.80558,8.5 8.5,8.5 z m -89,67 c 4.69442,0 8.5,-3.80558 8.5,-8.5 0,-4.69442 -3.80558,-8.5 -8.5,-8.5 -4.69442,0 -8.5,3.80558 -8.5,8.5 0,4.69442 3.80558,8.5 8.5,8.5 z m 89,-149 c 4.69442,0 8.5,-3.80558 8.5,-8.5 0,-4.69442 -3.80558,-8.5 -8.5,-8.5 -4.69442,0 -8.5,3.80558 -8.5,8.5 0,4.69442 3.80558,8.5 8.5,8.5 z m -88,-66 c 4.69442,0 8.5,-3.80558 8.5,-8.5 0,-4.69442 -3.80558,-8.5 -8.5,-8.5 -4.69442,0 -8.5,3.80558 -8.5,8.5 0,4.69442 3.80558,8.5 8.5,8.5 z M 152,87 v 27 h 14 V 87 Z m -1,232 v 27 h 14 V 319 Z M 128,87 v 27 h 14 V 87 Z m -1,232 v 27 h 14 V 319 Z M 106,87 v 27 h 14 V 87 Z m -1,232 v 27 h 14 V 319 Z M 483.5,100 c 3.03757,0 5.5,-2.462434 5.5,-5.5 0,-3.037566 -2.46243,-5.5 -5.5,-5.5 -3.03757,0 -5.5,2.462434 -5.5,5.5 0,3.037566 2.46243,5.5 5.5,5.5 z m 73,50 c 3.03757,0 5.5,-2.46243 5.5,-5.5 0,-3.03757 -2.46243,-5.5 -5.5,-5.5 -3.03757,0 -5.5,2.46243 -5.5,5.5 0,3.03757 2.46243,5.5 5.5,5.5 z m -2,142 c 3.03757,0 5.5,-2.46243 5.5,-5.5 0,-3.03757 -2.46243,-5.5 -5.5,-5.5 -3.03757,0 -5.5,2.46243 -5.5,5.5 0,3.03757 2.46243,5.5 5.5,5.5 z m 44,-89 c 3.03757,0 5.5,-2.46243 5.5,-5.5 0,-3.03757 -2.46243,-5.5 -5.5,-5.5 -3.03757,0 -5.5,2.46243 -5.5,5.5 0,3.03757 2.46243,5.5 5.5,5.5 z m 0,38 c 3.03757,0 5.5,-2.46243 5.5,-5.5 0,-3.03757 -2.46243,-5.5 -5.5,-5.5 -3.03757,0 -5.5,2.46243 -5.5,5.5 0,3.03757 2.46243,5.5 5.5,5.5 z m -152,-89 c 3.03757,0 5.5,-2.46243 5.5,-5.5 0,-3.03757 -2.46243,-5.5 -5.5,-5.5 -3.03757,0 -5.5,2.46243 -5.5,5.5 0,3.03757 2.46243,5.5 5.5,5.5 z m -1,140 c 3.03757,0 5.5,-2.46243 5.5,-5.5 0,-3.03757 -2.46243,-5.5 -5.5,-5.5 -3.03757,0 -5.5,2.46243 -5.5,5.5 0,3.03757 2.46243,5.5 5.5,5.5 z m 20,47 c 3.03757,0 5.5,-2.46243 5.5,-5.5 0,-3.03757 -2.46243,-5.5 -5.5,-5.5 -3.03757,0 -5.5,2.46243 -5.5,5.5 0,3.03757 2.46243,5.5 5.5,5.5 z m 17,6 c 3.03757,0 5.5,-2.46243 5.5,-5.5 0,-3.03757 -2.46243,-5.5 -5.5,-5.5 -3.03757,0 -5.5,2.46243 -5.5,5.5 0,3.03757 2.46243,5.5 5.5,5.5 z m -58,-123 c 3.03757,0 5.5,-2.46243 5.5,-5.5 0,-3.03757 -2.46243,-5.5 -5.5,-5.5 -3.03757,0 -5.5,2.46243 -5.5,5.5 0,3.03757 2.46243,5.5 5.5,5.5 z m -43,0 c 3.03757,0 5.5,-2.46243 5.5,-5.5 0,-3.03757 -2.46243,-5.5 -5.5,-5.5 -3.03757,0 -5.5,2.46243 -5.5,5.5 0,3.03757 2.46243,5.5 5.5,5.5 z m 173,173 c 3.03757,0 5.5,-2.46243 5.5,-5.5 0,-3.03757 -2.46243,-5.5 -5.5,-5.5 -3.03757,0 -5.5,2.46243 -5.5,5.5 0,3.03757 2.46243,5.5 5.5,5.5 z m 11,-17 c 3.03757,0 5.5,-2.46243 5.5,-5.5 0,-3.03757 -2.46243,-5.5 -5.5,-5.5 -3.03757,0 -5.5,2.46243 -5.5,5.5 0,3.03757 2.46243,5.5 5.5,5.5 z m 11,-17 c 3.03757,0 5.5,-2.46243 5.5,-5.5 0,-3.03757 -2.46243,-5.5 -5.5,-5.5 -3.03757,0 -5.5,2.46243 -5.5,5.5 0,3.03757 2.46243,5.5 5.5,5.5 z m -238,-139 c 3.03757,0 5.5,-2.46243 5.5,-5.5 0,-3.03757 -2.46243,-5.5 -5.5,-5.5 -3.03757,0 -5.5,2.46243 -5.5,5.5 0,3.03757 2.46243,5.5 5.5,5.5 z m 43,-33 c 3.03757,0 5.5,-2.46243 5.5,-5.5 0,-3.03757 -2.46243,-5.5 -5.5,-5.5 -3.03757,0 -5.5,2.46243 -5.5,5.5 0,3.03757 2.46243,5.5 5.5,5.5 z m 0,127 c 3.03757,0 5.5,-2.46243 5.5,-5.5 0,-3.03757 -2.46243,-5.5 -5.5,-5.5 -3.03757,0 -5.5,2.46243 -5.5,5.5 0,3.03757 2.46243,5.5 5.5,5.5 z m 0,-189 c 3.03757,0 5.5,-2.46243 5.5,-5.5 0,-3.03757 -2.46243,-5.5 -5.5,-5.5 -3.03757,0 -5.5,2.46243 -5.5,5.5 0,3.03757 2.46243,5.5 5.5,5.5 z m 0,127 c 3.03757,0 5.5,-2.46243 5.5,-5.5 0,-3.03757 -2.46243,-5.5 -5.5,-5.5 -3.03757,0 -5.5,2.46243 -5.5,5.5 0,3.03757 2.46243,5.5 5.5,5.5 z M 263.5,90 c 3.03757,0 5.5,-2.462434 5.5,-5.5 0,-3.037566 -2.46243,-5.5 -5.5,-5.5 -3.03757,0 -5.5,2.462434 -5.5,5.5 0,3.037566 2.46243,5.5 5.5,5.5 z m -2,264 c 3.03757,0 5.5,-2.46243 5.5,-5.5 0,-3.03757 -2.46243,-5.5 -5.5,-5.5 -3.03757,0 -5.5,2.46243 -5.5,5.5 0,3.03757 2.46243,5.5 5.5,5.5 z m -13,-264 c 3.03757,0 5.5,-2.462434 5.5,-5.5 0,-3.037566 -2.46243,-5.5 -5.5,-5.5 -3.03757,0 -5.5,2.462434 -5.5,5.5 0,3.037566 2.46243,5.5 5.5,5.5 z m -2,264 c 3.03757,0 5.5,-2.46243 5.5,-5.5 0,-3.03757 -2.46243,-5.5 -5.5,-5.5 -3.03757,0 -5.5,2.46243 -5.5,5.5 0,3.03757 2.46243,5.5 5.5,5.5 z m -29,-264 c 3.03757,0 5.5,-2.462434 5.5,-5.5 0,-3.037566 -2.46243,-5.5 -5.5,-5.5 -3.03757,0 -5.5,2.462434 -5.5,5.5 0,3.037566 2.46243,5.5 5.5,5.5 z m -2,264 c 3.03757,0 5.5,-2.46243 5.5,-5.5 0,-3.03757 -2.46243,-5.5 -5.5,-5.5 -3.03757,0 -5.5,2.46243 -5.5,5.5 0,3.03757 2.46243,5.5 5.5,5.5 z M 39.5,90 C 42.537566,90 45,87.537566 45,84.5 45,81.462434 42.537566,79 39.5,79 36.462434,79 34,81.462434 34,84.5 c 0,3.037566 2.462434,5.5 5.5,5.5 z m -18,54 c 3.037566,0 5.5,-2.46243 5.5,-5.5 0,-3.03757 -2.462434,-5.5 -5.5,-5.5 -3.037566,0 -5.5,2.46243 -5.5,5.5 0,3.03757 2.462434,5.5 5.5,5.5 z m -3,34 c 3.037566,0 5.5,-2.46243 5.5,-5.5 0,-3.03757 -2.462434,-5.5 -5.5,-5.5 -3.037566,0 -5.5,2.46243 -5.5,5.5 0,3.03757 2.462434,5.5 5.5,5.5 z m -2,25 c 3.037566,0 5.5,-2.46243 5.5,-5.5 0,-3.03757 -2.462434,-5.5 -5.5,-5.5 -3.037566,0 -5.5,2.46243 -5.5,5.5 0,3.03757 2.462434,5.5 5.5,5.5 z m 0,38 c 3.037566,0 5.5,-2.46243 5.5,-5.5 0,-3.03757 -2.462434,-5.5 -5.5,-5.5 -3.037566,0 -5.5,2.46243 -5.5,5.5 0,3.03757 2.462434,5.5 5.5,5.5 z m 2,24 c 3.037566,0 5.5,-2.46243 5.5,-5.5 0,-3.03757 -2.462434,-5.5 -5.5,-5.5 -3.037566,0 -5.5,2.46243 -5.5,5.5 0,3.03757 2.462434,5.5 5.5,5.5 z m 3,35 c 3.037566,0 5.5,-2.46243 5.5,-5.5 0,-3.03757 -2.462434,-5.5 -5.5,-5.5 -3.037566,0 -5.5,2.46243 -5.5,5.5 0,3.03757 2.462434,5.5 5.5,5.5 z m 18,53 c 3.037566,0 5.5,-2.46243 5.5,-5.5 0,-3.03757 -2.462434,-5.5 -5.5,-5.5 -3.037566,0 -5.5,2.46243 -5.5,5.5 0,3.03757 2.462434,5.5 5.5,5.5 z m 13,-73 c 3.037566,0 5.5,-2.46243 5.5,-5.5 0,-3.03757 -2.462434,-5.5 -5.5,-5.5 -3.037566,0 -5.5,2.46243 -5.5,5.5 0,3.03757 2.462434,5.5 5.5,5.5 z m 2,-116 c 3.037566,0 5.5,-2.46243 5.5,-5.5 0,-3.03757 -2.462434,-5.5 -5.5,-5.5 -3.037566,0 -5.5,2.46243 -5.5,5.5 0,3.03757 2.462434,5.5 5.5,5.5 z M 88,178 c 3.313709,0 6,-2.68629 6,-6 0,-3.31371 -2.686291,-6 -6,-6 -3.313709,0 -6,2.68629 -6,6 0,3.31371 2.686291,6 6,6 z m 0,89 c 3.313709,0 6,-2.68629 6,-6 0,-3.31371 -2.686291,-6 -6,-6 -3.313709,0 -6,2.68629 -6,6 0,3.31371 2.686291,6 6,6 z M 179.5,89 c 3.03757,0 5.5,-2.462434 5.5,-5.5 0,-3.037566 -2.46243,-5.5 -5.5,-5.5 -3.03757,0 -5.5,2.462434 -5.5,5.5 0,3.037566 2.46243,5.5 5.5,5.5 z m -2,264 c 3.03757,0 5.5,-2.46243 5.5,-5.5 0,-3.03757 -2.46243,-5.5 -5.5,-5.5 -3.03757,0 -5.5,2.46243 -5.5,5.5 0,3.03757 2.46243,5.5 5.5,5.5 z m 346,-286 c 3.03757,0 5.5,-2.462434 5.5,-5.5 0,-3.037566 -2.46243,-5.5 -5.5,-5.5 -3.03757,0 -5.5,2.462434 -5.5,5.5 0,3.037566 2.46243,5.5 5.5,5.5 z m 31,-16 c 3.03757,0 5.5,-2.462434 5.5,-5.5 0,-3.037566 -2.46243,-5.5 -5.5,-5.5 -3.03757,0 -5.5,2.462434 -5.5,5.5 0,3.037566 2.46243,5.5 5.5,5.5 z m 11,16 c 3.03757,0 5.5,-2.462434 5.5,-5.5 0,-3.037566 -2.46243,-5.5 -5.5,-5.5 -3.03757,0 -5.5,2.462434 -5.5,5.5 0,3.037566 2.46243,5.5 5.5,5.5 z m 11,18 c 3.03757,0 5.5,-2.462434 5.5,-5.5 0,-3.037566 -2.46243,-5.5 -5.5,-5.5 -3.03757,0 -5.5,2.462434 -5.5,5.5 0,3.037566 2.46243,5.5 5.5,5.5 z m -111,21 c 3.03757,0 5.5,-2.46243 5.5,-5.5 0,-3.037566 -2.46243,-5.5 -5.5,-5.5 -3.03757,0 -5.5,2.462434 -5.5,5.5 0,3.03757 2.46243,5.5 5.5,5.5 z m 30.5,31 v 13 h 26 v -13 z m -1,192 v 13 h 26 v -13 z m 1,-215 v 13 h 26 v -13 z m -1,192 v 13 h 26 v -13 z m 1,-215 v 13 h 26 V 91 Z m -1,192 v 13 h 26 v -13 z"
         inkscape:connector-curvature="0"
         style="fill:#000000" />
    </g>
  </g>
</svg>
