<?xml version="1.0" encoding="UTF-8"?>
<svg width="612px" height="433px" viewBox="0 0 612 433" version="1.1" xmlns="http://www.w3.org/2000/svg" xmlns:xlink="http://www.w3.org/1999/xlink">
    <!-- Generator: Sketch 51.3 (57544) - http://www.bohemiancoding.com/sketch -->
    <title>Combined Shape</title>
    <desc>Created with Sketch.</desc>
    <defs></defs>
    <g id="Page-1" stroke="none" stroke-width="1" fill="none" fill-rule="evenodd" fill-opacity="0.2">
        <path d="M508.014648,432.671875 L508.014648,361.668945 L337.847656,361.668945 L337.847656,358.086914 L299.901367,358.086914 L299.901367,361.668945 L36.5683594,361.668945 C12.5683594,348.503581 0.568359375,300.192871 0.568359375,216.736816 C0.568359375,133.280762 12.5683594,85.5022786 36.5683594,73.4013672 L302.799805,73.4013672 L302.799805,76.7753906 L339.709961,76.7753906 L339.709961,73.4013672 L511.800781,73.4013672 L511.800781,0.801757812 C578.467448,15.976237 611.800781,87.9545898 611.800781,216.736816 C611.800781,345.519043 577.205404,417.497396 508.014648,432.671875 Z M391,271 L391,259 L373,259 L373,271 L352,271 L352,289 L373,289 L373,300 L391,300 L391,289 L410,289 L410,271 L391,271 Z M391,144 L391,132 L373,132 L373,144 L352,144 L352,162 L373,162 L373,173 L391,173 L391,162 L410,162 L410,144 L391,144 Z M180.018945,258 L180,258 L180,286 L180.018945,286 C180.274257,289.356224 183.078385,292 186.5,292 C189.921615,292 192.725743,289.356224 192.981055,286 L193,286 L193,258 L192.981055,258 C192.993609,257.834979 193,257.668236 193,257.5 C193,253.910149 190.089851,251 186.5,251 C182.910149,251 180,253.910149 180,257.5 C180,257.668236 180.006391,257.834979 180.018945,258 Z M179.018945,148 L179,148 L179,176 L179.018945,176 C179.274257,179.356224 182.078385,182 185.5,182 C188.921615,182 191.725743,179.356224 191.981055,176 L192,176 L192,148 L191.981055,148 C191.993609,147.834979 192,147.668236 192,147.5 C192,143.910149 189.089851,141 185.5,141 C181.910149,141 179,143.910149 179,147.5 C179,147.668236 179.006391,147.834979 179.018945,148 Z M566.016402,306 C566.273695,309.909016 569.525879,313 573.5,313 C577.474121,313 580.726305,309.909016 580.983598,306 L581,306 L581,130 L580.983598,130 C580.994475,129.834738 581,129.668014 581,129.5 C581,125.357864 577.642136,122 573.5,122 C569.357864,122 566,125.357864 566,129.5 C566,129.668014 566.005525,129.834738 566.016402,130 L566,130 L566,306 L566.016402,306 Z M318,208 L318,203 L278,203 L278,208 L275,208 L275,226 L278,226 L278,230 L318,230 L318,226 L321,226 L321,208 L318,208 Z M563.07371,109.555632 C563.586789,113.197931 566.716165,116 570.5,116 C574.642136,116 578,112.642136 578,108.5 C578,106.752386 577.402269,105.144379 576.400095,103.869267 L576.924081,103.566744 L535.47176,30.7296984 C534.369754,27.958775 531.663625,26 528.5,26 C524.357864,26 521,29.3578644 521,33.5 C521,34.6185961 521.244884,35.6799964 521.683967,36.633515 L521.600424,36.6817487 L563.07371,109.555632 Z M578.847107,327.014048 C578.947351,326.525031 579,326.018664 579,325.5 C579,321.357864 575.642136,318 571.5,318 C569.775229,318 568.18644,318.582207 566.919439,319.560814 L566.79717,319.484411 L566.56309,319.853898 C565.487143,320.795467 564.682708,322.039633 564.282586,323.453596 L521.316315,391.274383 C519.315891,392.621341 518,394.906999 518,397.5 C518,401.642136 521.357864,405 525.5,405 C529.068101,405 532.054244,402.50834 532.813381,399.170067 L533.714108,399.732904 L579.517891,327.4332 L578.847107,327.014048 Z M521,245 C536.463973,245 549,232.463973 549,217 C549,201.536027 536.463973,189 521,189 C505.536027,189 493,201.536027 493,217 C493,232.463973 505.536027,245 521,245 Z M303,130 L303,140 L339,140 L339,130 L303,130 Z M303,294 L303,304 L339,304 L339,294 L303,294 Z M431.5,321 C436.19442,321 440,317.19442 440,312.5 C440,307.80558 436.19442,304 431.5,304 C426.80558,304 423,307.80558 423,312.5 C423,317.19442 426.80558,321 431.5,321 Z M289.5,266 C294.19442,266 298,262.19442 298,257.5 C298,252.80558 294.19442,249 289.5,249 C284.80558,249 281,252.80558 281,257.5 C281,262.19442 284.80558,266 289.5,266 Z M200.5,333 C205.19442,333 209,329.19442 209,324.5 C209,319.80558 205.19442,316 200.5,316 C195.80558,316 192,319.80558 192,324.5 C192,329.19442 195.80558,333 200.5,333 Z M289.5,184 C294.19442,184 298,180.19442 298,175.5 C298,170.80558 294.19442,167 289.5,167 C284.80558,167 281,170.80558 281,175.5 C281,180.19442 284.80558,184 289.5,184 Z M201.5,118 C206.19442,118 210,114.19442 210,109.5 C210,104.80558 206.19442,101 201.5,101 C196.80558,101 193,104.80558 193,109.5 C193,114.19442 196.80558,118 201.5,118 Z M152,87 L152,114 L166,114 L166,87 L152,87 Z M151,319 L151,346 L165,346 L165,319 L151,319 Z M128,87 L128,114 L142,114 L142,87 L128,87 Z M127,319 L127,346 L141,346 L141,319 L127,319 Z M106,87 L106,114 L120,114 L120,87 L106,87 Z M105,319 L105,346 L119,346 L119,319 L105,319 Z M483.5,100 C486.537566,100 489,97.5375661 489,94.5 C489,91.4624339 486.537566,89 483.5,89 C480.462434,89 478,91.4624339 478,94.5 C478,97.5375661 480.462434,100 483.5,100 Z M556.5,150 C559.537566,150 562,147.537566 562,144.5 C562,141.462434 559.537566,139 556.5,139 C553.462434,139 551,141.462434 551,144.5 C551,147.537566 553.462434,150 556.5,150 Z M554.5,292 C557.537566,292 560,289.537566 560,286.5 C560,283.462434 557.537566,281 554.5,281 C551.462434,281 549,283.462434 549,286.5 C549,289.537566 551.462434,292 554.5,292 Z M598.5,203 C601.537566,203 604,200.537566 604,197.5 C604,194.462434 601.537566,192 598.5,192 C595.462434,192 593,194.462434 593,197.5 C593,200.537566 595.462434,203 598.5,203 Z M598.5,241 C601.537566,241 604,238.537566 604,235.5 C604,232.462434 601.537566,230 598.5,230 C595.462434,230 593,232.462434 593,235.5 C593,238.537566 595.462434,241 598.5,241 Z M446.5,152 C449.537566,152 452,149.537566 452,146.5 C452,143.462434 449.537566,141 446.5,141 C443.462434,141 441,143.462434 441,146.5 C441,149.537566 443.462434,152 446.5,152 Z M445.5,292 C448.537566,292 451,289.537566 451,286.5 C451,283.462434 448.537566,281 445.5,281 C442.462434,281 440,283.462434 440,286.5 C440,289.537566 442.462434,292 445.5,292 Z M465.5,339 C468.537566,339 471,336.537566 471,333.5 C471,330.462434 468.537566,328 465.5,328 C462.462434,328 460,330.462434 460,333.5 C460,336.537566 462.462434,339 465.5,339 Z M482.5,345 C485.537566,345 488,342.537566 488,339.5 C488,336.462434 485.537566,334 482.5,334 C479.462434,334 477,336.462434 477,339.5 C477,342.537566 479.462434,345 482.5,345 Z M424.5,222 C427.537566,222 430,219.537566 430,216.5 C430,213.462434 427.537566,211 424.5,211 C421.462434,211 419,213.462434 419,216.5 C419,219.537566 421.462434,222 424.5,222 Z M381.5,222 C384.537566,222 387,219.537566 387,216.5 C387,213.462434 384.537566,211 381.5,211 C378.462434,211 376,213.462434 376,216.5 C376,219.537566 378.462434,222 381.5,222 Z M554.5,395 C557.537566,395 560,392.537566 560,389.5 C560,386.462434 557.537566,384 554.5,384 C551.462434,384 549,386.462434 549,389.5 C549,392.537566 551.462434,395 554.5,395 Z M565.5,378 C568.537566,378 571,375.537566 571,372.5 C571,369.462434 568.537566,367 565.5,367 C562.462434,367 560,369.462434 560,372.5 C560,375.537566 562.462434,378 565.5,378 Z M576.5,361 C579.537566,361 582,358.537566 582,355.5 C582,352.462434 579.537566,350 576.5,350 C573.462434,350 571,352.462434 571,355.5 C571,358.537566 573.462434,361 576.5,361 Z M338.5,222 C341.537566,222 344,219.537566 344,216.5 C344,213.462434 341.537566,211 338.5,211 C335.462434,211 333,213.462434 333,216.5 C333,219.537566 335.462434,222 338.5,222 Z M381.5,189 C384.537566,189 387,186.537566 387,183.5 C387,180.462434 384.537566,178 381.5,178 C378.462434,178 376,180.462434 376,183.5 C376,186.537566 378.462434,189 381.5,189 Z M381.5,316 C384.537566,316 387,313.537566 387,310.5 C387,307.462434 384.537566,305 381.5,305 C378.462434,305 376,307.462434 376,310.5 C376,313.537566 378.462434,316 381.5,316 Z M381.5,127 C384.537566,127 387,124.537566 387,121.5 C387,118.462434 384.537566,116 381.5,116 C378.462434,116 376,118.462434 376,121.5 C376,124.537566 378.462434,127 381.5,127 Z M381.5,254 C384.537566,254 387,251.537566 387,248.5 C387,245.462434 384.537566,243 381.5,243 C378.462434,243 376,245.462434 376,248.5 C376,251.537566 378.462434,254 381.5,254 Z M263.5,90 C266.537566,90 269,87.5375661 269,84.5 C269,81.4624339 266.537566,79 263.5,79 C260.462434,79 258,81.4624339 258,84.5 C258,87.5375661 260.462434,90 263.5,90 Z M261.5,354 C264.537566,354 267,351.537566 267,348.5 C267,345.462434 264.537566,343 261.5,343 C258.462434,343 256,345.462434 256,348.5 C256,351.537566 258.462434,354 261.5,354 Z M248.5,90 C251.537566,90 254,87.5375661 254,84.5 C254,81.4624339 251.537566,79 248.5,79 C245.462434,79 243,81.4624339 243,84.5 C243,87.5375661 245.462434,90 248.5,90 Z M246.5,354 C249.537566,354 252,351.537566 252,348.5 C252,345.462434 249.537566,343 246.5,343 C243.462434,343 241,345.462434 241,348.5 C241,351.537566 243.462434,354 246.5,354 Z M217.5,90 C220.537566,90 223,87.5375661 223,84.5 C223,81.4624339 220.537566,79 217.5,79 C214.462434,79 212,81.4624339 212,84.5 C212,87.5375661 214.462434,90 217.5,90 Z M215.5,354 C218.537566,354 221,351.537566 221,348.5 C221,345.462434 218.537566,343 215.5,343 C212.462434,343 210,345.462434 210,348.5 C210,351.537566 212.462434,354 215.5,354 Z M39.5,90 C42.5375661,90 45,87.5375661 45,84.5 C45,81.4624339 42.5375661,79 39.5,79 C36.4624339,79 34,81.4624339 34,84.5 C34,87.5375661 36.4624339,90 39.5,90 Z M21.5,144 C24.5375661,144 27,141.537566 27,138.5 C27,135.462434 24.5375661,133 21.5,133 C18.4624339,133 16,135.462434 16,138.5 C16,141.537566 18.4624339,144 21.5,144 Z M18.5,178 C21.5375661,178 24,175.537566 24,172.5 C24,169.462434 21.5375661,167 18.5,167 C15.4624339,167 13,169.462434 13,172.5 C13,175.537566 15.4624339,178 18.5,178 Z M16.5,203 C19.5375661,203 22,200.537566 22,197.5 C22,194.462434 19.5375661,192 16.5,192 C13.4624339,192 11,194.462434 11,197.5 C11,200.537566 13.4624339,203 16.5,203 Z M16.5,241 C19.5375661,241 22,238.537566 22,235.5 C22,232.462434 19.5375661,230 16.5,230 C13.4624339,230 11,232.462434 11,235.5 C11,238.537566 13.4624339,241 16.5,241 Z M18.5,265 C21.5375661,265 24,262.537566 24,259.5 C24,256.462434 21.5375661,254 18.5,254 C15.4624339,254 13,256.462434 13,259.5 C13,262.537566 15.4624339,265 18.5,265 Z M21.5,300 C24.5375661,300 27,297.537566 27,294.5 C27,291.462434 24.5375661,289 21.5,289 C18.4624339,289 16,291.462434 16,294.5 C16,297.537566 18.4624339,300 21.5,300 Z M39.5,353 C42.5375661,353 45,350.537566 45,347.5 C45,344.462434 42.5375661,342 39.5,342 C36.4624339,342 34,344.462434 34,347.5 C34,350.537566 36.4624339,353 39.5,353 Z M52.5,280 C55.5375661,280 58,277.537566 58,274.5 C58,271.462434 55.5375661,269 52.5,269 C49.4624339,269 47,271.462434 47,274.5 C47,277.537566 49.4624339,280 52.5,280 Z M54.5,164 C57.5375661,164 60,161.537566 60,158.5 C60,155.462434 57.5375661,153 54.5,153 C51.4624339,153 49,155.462434 49,158.5 C49,161.537566 51.4624339,164 54.5,164 Z M88,178 C91.3137085,178 94,175.313708 94,172 C94,168.686292 91.3137085,166 88,166 C84.6862915,166 82,168.686292 82,172 C82,175.313708 84.6862915,178 88,178 Z M88,267 C91.3137085,267 94,264.313708 94,261 C94,257.686292 91.3137085,255 88,255 C84.6862915,255 82,257.686292 82,261 C82,264.313708 84.6862915,267 88,267 Z M179.5,89 C182.537566,89 185,86.5375661 185,83.5 C185,80.4624339 182.537566,78 179.5,78 C176.462434,78 174,80.4624339 174,83.5 C174,86.5375661 176.462434,89 179.5,89 Z M177.5,353 C180.537566,353 183,350.537566 183,347.5 C183,344.462434 180.537566,342 177.5,342 C174.462434,342 172,344.462434 172,347.5 C172,350.537566 174.462434,353 177.5,353 Z M523.5,67 C526.537566,67 529,64.5375661 529,61.5 C529,58.4624339 526.537566,56 523.5,56 C520.462434,56 518,58.4624339 518,61.5 C518,64.5375661 520.462434,67 523.5,67 Z M554.5,51 C557.537566,51 560,48.5375661 560,45.5 C560,42.4624339 557.537566,40 554.5,40 C551.462434,40 549,42.4624339 549,45.5 C549,48.5375661 551.462434,51 554.5,51 Z M565.5,67 C568.537566,67 571,64.5375661 571,61.5 C571,58.4624339 568.537566,56 565.5,56 C562.462434,56 560,58.4624339 560,61.5 C560,64.5375661 562.462434,67 565.5,67 Z M576.5,85 C579.537566,85 582,82.5375661 582,79.5 C582,76.4624339 579.537566,74 576.5,74 C573.462434,74 571,76.4624339 571,79.5 C571,82.5375661 573.462434,85 576.5,85 Z M465.5,106 C468.537566,106 471,103.537566 471,100.5 C471,97.4624339 468.537566,95 465.5,95 C462.462434,95 460,97.4624339 460,100.5 C460,103.537566 462.462434,106 465.5,106 Z M496,137 L496,150 L522,150 L522,137 L496,137 Z M495,329 L495,342 L521,342 L521,329 L495,329 Z M496,114 L496,127 L522,127 L522,114 L496,114 Z M495,306 L495,319 L521,319 L521,306 L495,306 Z M496,91 L496,104 L522,104 L522,91 L496,91 Z M495,283 L495,296 L521,296 L521,283 L495,283 Z" id="Combined-Shape" fill="#000000"></path>
    </g>
</svg>