<?xml version="1.0" encoding="UTF-8"?>
<svg width="151px" height="216px" viewBox="0 0 151 216" version="1.1" xmlns="http://www.w3.org/2000/svg" xmlns:xlink="http://www.w3.org/1999/xlink">
    <!-- Generator: Sketch 53.2 (72643) - https://sketchapp.com -->
    <title>buggy panel replacement_inkscape</title>
    <desc>Created with Sketch.</desc>
    <g id="Page-1" stroke="none" stroke-width="1" fill="none" fill-rule="evenodd">
        <g id="buggy-panel-replacement_inkscape" fill="#000000" fill-rule="nonzero">
            <g id="Page-1" transform="translate(75.378950, 108.367332) rotate(90.000000) translate(-75.378950, -108.367332) translate(-32.621050, 33.367332)">
                <path d="M179.021223,149.69481 L179.021223,125.129381 L119.055427,125.129381 L119.055427,123.890078 L105.683389,123.890078 L105.683389,125.129381 L12.8864637,125.129381 C4.42901204,120.57446 0.20028633,103.860033 0.20028633,74.9861022 C0.20028633,46.1121681 4.42901204,29.5818801 12.8864637,25.3952347 L106.704778,25.3952347 L106.704778,26.5625717 L119.71169,26.5625717 L119.71169,25.3952347 L180.355432,25.3952347 L180.355432,0.277390307 C203.848354,5.52742141 215.594814,30.430325 215.594814,74.9861022 C215.594814,119.541876 203.403616,144.444782 179.021223,149.69481 Z M137.785984,93.7599513 L137.785984,89.6082191 L131.442895,89.6082191 L131.442895,93.7599513 L124.042625,93.7599513 L124.042625,99.9875495 L131.442895,99.9875495 L131.442895,103.793304 L137.785984,103.793304 L137.785984,99.9875495 L144.481466,99.9875495 L144.481466,93.7599513 L137.785984,93.7599513 Z M137.785984,49.8207859 L137.785984,45.6690538 L131.442895,45.6690538 L131.442895,49.8207859 L124.042625,49.8207859 L124.042625,56.0483842 L131.442895,56.0483842 L131.442895,59.8541386 L137.785984,59.8541386 L137.785984,56.0483842 L144.481466,56.0483842 L144.481466,49.8207859 L137.785984,49.8207859 Z M63.4375619,89.2622414 L63.4308876,89.2622414 L63.4308876,98.9496165 L63.4375478,98.9496165 C63.527521,100.110794 64.5156756,101.025483 65.7214333,101.025483 C66.9271876,101.025483 67.9153456,100.110794 68.0053153,98.9496165 L68.0120073,98.9496165 L68.0120073,89.2622414 L68.005347,89.2622414 C68.0097872,89.2051482 68.0120073,89.1474599 68.0120073,89.0892526 C68.0120073,87.8472446 66.9864884,86.8403977 65.7214474,86.8403977 C64.4564065,86.8403977 63.4308876,87.8472446 63.4308876,89.0892526 C63.4308876,89.1474599 63.433002,89.2051482 63.4375478,89.2622414 L63.4375619,89.2622414 Z M63.0851681,51.2046966 L63.0784938,51.2046966 L63.0784938,60.8920717 L63.085154,60.8920717 C63.1751272,62.0532489 64.1632818,62.9679378 65.3690395,62.9679378 C66.5747937,62.9679378 67.5629518,62.0532489 67.6529215,60.8920717 L67.6596134,60.8920717 L67.6596134,51.2046966 L67.6529532,51.2046966 C67.6573934,51.1476034 67.6596134,51.0899151 67.6596134,51.0317078 C67.6596134,49.7896998 66.6340946,48.7828529 65.3690536,48.7828529 C64.1040127,48.7828529 63.0784938,49.7896998 63.0784938,51.0317078 C63.0784938,51.0899151 63.0806081,51.1476034 63.085154,51.2046966 L63.0851681,51.2046966 Z M106.775327,44.9770984 L106.775327,48.4368752 L119.461505,48.4368752 L119.461505,44.9770984 L106.775327,44.9770984 Z M106.775327,101.717438 L106.775327,105.177215 L119.461505,105.177215 L119.461505,101.717438 L106.775327,101.717438 Z M6.51928567,61.584027 C7.58970516,61.584027 8.45745168,60.7320812 8.45745168,59.6811498 C8.45745168,58.6302184 7.58970516,57.7782726 6.51928567,57.7782726 C5.44886618,57.7782726 4.58111966,58.6302184 4.58111966,59.6811498 C4.58111966,60.7320812 5.44886618,61.584027 6.51928567,61.584027 Z M6.51928567,91.6840852 C7.58970516,91.6840852 8.45745168,90.8321394 8.45745168,89.781208 C8.45745168,88.7302765 7.58970516,87.8783307 6.51928567,87.8783307 C5.44886618,87.8783307 4.58111966,88.7302765 4.58111966,89.781208 C4.58111966,90.8321394 5.44886618,91.6840852 6.51928567,91.6840852 Z M31.0106562,61.584027 C32.1783867,61.584027 33.1250191,60.6546307 33.1250191,59.508161 C33.1250191,58.3616913 32.1783867,57.4322949 31.0106562,57.4322949 C29.8429256,57.4322949 28.8962932,58.3616913 28.8962932,59.508161 C28.8962932,60.6546307 29.8429256,61.584027 31.0106562,61.584027 Z M31.0106562,92.3760406 C32.1783867,92.3760406 33.1250191,91.4466442 33.1250191,90.3001745 C33.1250191,89.1537048 32.1783867,88.2243084 31.0106562,88.2243084 C29.8429256,88.2243084 28.8962932,89.1537048 28.8962932,90.3001745 C28.8962932,91.4466442 29.8429256,92.3760406 31.0106562,92.3760406 Z" id="Combined-Shape"></path>
            </g>
        </g>
    </g>
</svg>