<?xml version="1.0" encoding="utf-8"?>
<!-- Generator: Adobe Illustrator 23.0.3, SVG Export Plug-In . SVG Version: 6.00 Build 0)  -->
<svg version="1.1" id="Layer_1" xmlns="http://www.w3.org/2000/svg" xmlns:xlink="http://www.w3.org/1999/xlink" x="0px" y="0px"
	 viewBox="0 0 595.3 841.9" style="enable-background:new 0 0 595.3 841.9;" xml:space="preserve">
<style type="text/css">
	.st0{display:none;}
	.st1{display:inline;}
	.st2{fill-rule:evenodd;clip-rule:evenodd;fill:none;stroke:#FF0000;stroke-miterlimit:10;}
	.st3{fill-rule:evenodd;clip-rule:evenodd;fill:none;stroke:#03F931;stroke-miterlimit:10;}
	.st4{fill-rule:evenodd;clip-rule:evenodd;fill:none;stroke:#29D120;stroke-miterlimit:10;}
	.st5{fill:none;stroke:#EA1313;stroke-miterlimit:10;}
</style>
<g id="full_plate" xmlns:cc="http://creativecommons.org/ns#" xmlns:dc="http://purl.org/dc/elements/1.1/" xmlns:inkscape="http://www.inkscape.org/namespaces/inkscape" xmlns:rdf="http://www.w3.org/1999/02/22-rdf-syntax-ns#" xmlns:sodipodi="http://sodipodi.sourceforge.net/DTD/sodipodi-0.dtd" xmlns:svg="http://www.w3.org/2000/svg" class="st0">
	<g id="Page-1" transform="matrix(0,0.35239382,-0.34597768,0,188.37895,16.367332)" class="st1">
		<path id="Combined-Shape" inkscape:connector-curvature="0" class="st2" d="M1510.8,220.5V19.3h-482.4V9.1H920.9v10.2H174.4
			c-68-37.3-102-174.3-102-410.8s34-372,102-406.3h754.7v9.6h104.6v-9.6h487.8v-205.8c189,43,283.5,247,283.5,612.1
			S1706.9,177.5,1510.8,220.5z M1179.1-237.7v-34h-51v34h-59.5v51h59.5v31.2h51v-31.2h53.9v-51
			C1233-237.7,1179.1-237.7,1179.1-237.7z M1179.1-597.7v-34h-51v34h-59.5v51h59.5v31.2h51v-31.2h53.9v-51H1179.1z M581-274.6
			L581-274.6l-0.1,79.4h0.1c0.7,9.5,8.7,17,18.4,17s17.6-7.5,18.4-17h0.1v-79.4h-0.1c0-0.5,0.1-0.9,0.1-1.4
			c0-10.2-8.2-18.4-18.4-18.4s-18.4,8.2-18.4,18.4C581-275.5,581-275.1,581-274.6L581-274.6z M578.2-586.4L578.2-586.4l-0.1,79.4
			h0.1c0.7,9.5,8.7,17,18.4,17s17.6-7.5,18.4-17h0.1v-79.4H615c0-0.5,0.1-0.9,0.1-1.4c0-10.2-8.2-18.4-18.4-18.4
			s-18.4,8.2-18.4,18.4C578.2-587.3,578.2-586.9,578.2-586.4L578.2-586.4z M1675.2-138.5c0.7,11.1,9.9,19.8,21.2,19.8
			s20.5-8.8,21.2-19.8l0,0v-498.9l0,0c0-0.5,0-0.9,0-1.4c0-11.7-9.5-21.3-21.3-21.3c-11.7,0-21.3,9.5-21.3,21.3c0,0.5,0,0.9,0,1.4
			l0,0L1675.2-138.5L1675.2-138.5z M1666.9-695.4c1.5,10.3,10.3,18.3,21.1,18.3c11.7,0,21.3-9.5,21.3-21.3c0-5-1.7-9.5-4.5-13.1
			l1.5-0.9l-117.5-206.5c-3.1-7.9-10.8-13.4-19.8-13.4c-11.7,0-21.3,9.5-21.3,21.3c0,3.2,0.7,6.2,1.9,8.9l-0.2,0.1L1666.9-695.4z
			 M1711.6-79c0.3-1.4,0.4-2.8,0.4-4.3c0-11.7-9.5-21.3-21.3-21.3c-4.9,0-9.4,1.7-13,4.4l-0.3-0.2l-0.7,1c-3,2.7-5.3,6.2-6.5,10.2
			L1548.4,103c-5.7,3.8-9.4,10.3-9.4,17.6c0,11.7,9.5,21.3,21.3,21.3c10.1,0,18.6-7.1,20.7-16.5l2.6,1.6l129.8-204.9L1711.6-79z
			 M1547.6-311.4c43.8,0,79.4-35.5,79.4-79.4s-35.5-79.4-79.4-79.4c-43.8,0-79.4,35.5-79.4,79.4S1503.8-311.4,1547.6-311.4z
			 M929.6-637.4v28.3h102v-28.3H929.6z M929.6-172.5v28.3h102v-28.3H929.6z M1293.9-96c13.3,0,24.1-10.8,24.1-24.1
			s-10.8-24.1-24.1-24.1s-24.1,10.8-24.1,24.1S1280.6-96,1293.9-96z M891.4-251.9c13.3,0,24.1-10.8,24.1-24.1s-10.8-24.1-24.1-24.1
			s-24.1,10.8-24.1,24.1S878.1-251.9,891.4-251.9z M639.1-62c13.3,0,24.1-10.8,24.1-24.1s-10.8-24.1-24.1-24.1S615-99.4,615-86.1
			S625.8-62,639.1-62z M891.4-484.4c13.3,0,24.1-10.8,24.1-24.1c0-13.3-10.8-24.1-24.1-24.1s-24.1,10.8-24.1,24.1
			C867.3-495.1,878.1-484.4,891.4-484.4z M641.9-671.4c13.3,0,24.1-10.8,24.1-24.1s-10.8-24.1-24.1-24.1s-24.1,10.8-24.1,24.1
			S628.6-671.4,641.9-671.4z M501.6-759.3v76.5h39.7v-76.5H501.6z M498.8-101.7v76.5h39.7v-76.5H498.8z M433.6-759.3v76.5h39.7
			v-76.5H433.6z M430.8-101.7v76.5h39.7v-76.5H430.8z M371.2-759.3v76.5h39.7v-76.5H371.2z M368.4-101.7v76.5h39.7v-76.5H368.4z
			 M1441.3-722.5c8.6,0,15.6-7,15.6-15.6s-7-15.6-15.6-15.6s-15.6,7-15.6,15.6S1432.7-722.5,1441.3-722.5z M1767.3-430.5
			c8.6,0,15.6-7,15.6-15.6s-7-15.6-15.6-15.6s-15.6,7-15.6,15.6S1758.7-430.5,1767.3-430.5z M1767.3-322.8c8.6,0,15.6-7,15.6-15.6
			s-7-15.6-15.6-15.6s-15.6,7-15.6,15.6S1758.7-322.8,1767.3-322.8z M1390.3-45c8.6,0,15.6-7,15.6-15.6s-7-15.6-15.6-15.6
			s-15.6,7-15.6,15.6S1381.7-45,1390.3-45z M1438.5-28c8.6,0,15.6-7,15.6-15.6s-7-15.6-15.6-15.6s-15.6,7-15.6,15.6
			S1429.9-28,1438.5-28z M1274.1-376.6c8.6,0,15.6-7,15.6-15.6c0-8.6-7-15.6-15.6-15.6s-15.6,7-15.6,15.6
			C1258.5-383.6,1265.4-376.6,1274.1-376.6z M1152.2-376.6c8.6,0,15.6-7,15.6-15.6c0-8.6-7-15.6-15.6-15.6s-15.6,7-15.6,15.6
			C1136.6-383.6,1143.6-376.6,1152.2-376.6z M1642.6,113.8c8.6,0,15.6-7,15.6-15.6s-7-15.6-15.6-15.6s-15.6,7-15.6,15.6
			S1634,113.8,1642.6,113.8z M1673.7,65.6c8.6,0,15.6-7,15.6-15.6s-7-15.6-15.6-15.6s-15.6,7-15.6,15.6S1665.1,65.6,1673.7,65.6z
			 M1704.9,17.4c8.6,0,15.6-7,15.6-15.6s-7-15.6-15.6-15.6s-15.6,7-15.6,15.6S1696.3,17.4,1704.9,17.4z M1030.3-376.6
			c8.6,0,15.6-7,15.6-15.6c0-8.6-7-15.6-15.6-15.6s-15.6,7-15.6,15.6C1014.7-383.6,1021.7-376.6,1030.3-376.6z M1152.2-470.2
			c8.6,0,15.6-7,15.6-15.6s-7-15.6-15.6-15.6s-15.6,7-15.6,15.6S1143.6-470.2,1152.2-470.2z M1152.2-110.2c8.6,0,15.6-7,15.6-15.6
			s-7-15.6-15.6-15.6s-15.6,7-15.6,15.6S1143.6-110.2,1152.2-110.2z M1152.2-645.9c8.6,0,15.6-7,15.6-15.6c0-8.6-7-15.6-15.6-15.6
			s-15.6,7-15.6,15.6C1136.6-652.9,1143.6-645.9,1152.2-645.9z M1152.2-285.9c8.6,0,15.6-7,15.6-15.6c0-8.6-7-15.6-15.6-15.6
			s-15.6,7-15.6,15.6C1136.6-292.9,1143.6-285.9,1152.2-285.9z M817.7-750.8c8.6,0,15.6-7,15.6-15.6s-7-15.6-15.6-15.6
			s-15.6,7-15.6,15.6S809.1-750.8,817.7-750.8z M812-2.5c8.6,0,15.6-7,15.6-15.6s-7-15.6-15.6-15.6s-15.6,7-15.6,15.6
			S803.4-2.5,812-2.5z M775.2-750.8c8.6,0,15.6-7,15.6-15.6s-7-15.6-15.6-15.6s-15.6,7-15.6,15.6S766.6-750.8,775.2-750.8z
			 M769.5-2.5c8.6,0,15.6-7,15.6-15.6s-7-15.6-15.6-15.6s-15.6,7-15.6,15.6S760.9-2.5,769.5-2.5z M687.3-750.8
			c8.6,0,15.6-7,15.6-15.6s-7-15.6-15.6-15.6c-8.6,0-15.6,7-15.6,15.6S678.7-750.8,687.3-750.8z M681.6-2.5c8.6,0,15.6-7,15.6-15.6
			s-7-15.6-15.6-15.6c-8.6,0-15.6,7-15.6,15.6S673-2.5,681.6-2.5z M182.7-750.8c8.6,0,15.6-7,15.6-15.6s-7-15.6-15.6-15.6
			c-8.6,0-15.6,7-15.6,15.6S174.1-750.8,182.7-750.8z M131.7-597.7c8.6,0,15.6-7,15.6-15.6s-7-15.6-15.6-15.6s-15.6,7-15.6,15.6
			S123.1-597.7,131.7-597.7z M123.2-501.4c8.6,0,15.6-7,15.6-15.6c0-8.6-7-15.6-15.6-15.6s-15.6,7-15.6,15.6
			C107.6-508.4,114.6-501.4,123.2-501.4z M117.5-430.5c8.6,0,15.6-7,15.6-15.6s-7-15.6-15.6-15.6s-15.6,7-15.6,15.6
			S108.9-430.5,117.5-430.5z M117.5-322.8c8.6,0,15.6-7,15.6-15.6s-7-15.6-15.6-15.6s-15.6,7-15.6,15.6S108.9-322.8,117.5-322.8z
			 M123.2-254.8c8.6,0,15.6-7,15.6-15.6s-7-15.6-15.6-15.6s-15.6,7-15.6,15.6S114.6-254.8,123.2-254.8z M131.7-155.5
			c8.6,0,15.6-7,15.6-15.6c0-8.6-7-15.6-15.6-15.6s-15.6,7-15.6,15.6C116.1-162.5,123.1-155.5,131.7-155.5z M182.7-5.3
			c8.6,0,15.6-7,15.6-15.6s-7-15.6-15.6-15.6c-8.6,0-15.6,7-15.6,15.6S174.1-5.3,182.7-5.3z M219.6-212.2c8.6,0,15.6-7,15.6-15.6
			c0-8.6-7-15.6-15.6-15.6s-15.6,7-15.6,15.6C204-219.2,211-212.2,219.6-212.2z M225.2-541.1c8.6,0,15.6-7,15.6-15.6
			s-7-15.6-15.6-15.6c-8.6,0-15.6,7-15.6,15.6S216.6-541.1,225.2-541.1z M320.2-501.4c9.4,0,17-7.6,17-17c0-9.4-7.6-17-17-17
			c-9.4,0-17,7.6-17,17C303.2-509,310.8-501.4,320.2-501.4z M320.2-249.1c9.4,0,17-7.6,17-17c0-9.4-7.6-17-17-17
			c-9.4,0-17,7.6-17,17C303.2-256.7,310.8-249.1,320.2-249.1z M579.6-753.7c8.6,0,15.6-7,15.6-15.6s-7-15.6-15.6-15.6
			c-8.6,0-15.6,7-15.6,15.6S571-753.7,579.6-753.7z M573.9-5.3c8.6,0,15.6-7,15.6-15.6s-7-15.6-15.6-15.6c-8.6,0-15.6,7-15.6,15.6
			S565.3-5.3,573.9-5.3z M1554.7-816c8.6,0,15.6-7,15.6-15.6s-7-15.6-15.6-15.6s-15.6,7-15.6,15.6S1546.1-816,1554.7-816z
			 M1642.6-861.4c8.6,0,15.6-7,15.6-15.6s-7-15.6-15.6-15.6s-15.6,7-15.6,15.6S1634-861.4,1642.6-861.4z M1673.7-816
			c8.6,0,15.6-7,15.6-15.6s-7-15.6-15.6-15.6s-15.6,7-15.6,15.6S1665.1-816,1673.7-816z M1704.9-765c8.6,0,15.6-7,15.6-15.6
			s-7-15.6-15.6-15.6s-15.6,7-15.6,15.6S1696.3-765,1704.9-765z M1390.3-705.5c8.6,0,15.6-7,15.6-15.6c0-8.6-7-15.6-15.6-15.6
			s-15.6,7-15.6,15.6C1374.7-712.5,1381.7-705.5,1390.3-705.5z M1476.7-617.6v36.9h73.7v-36.9H1476.7z M1473.9-73.3v36.9h73.7v-36.9
			H1473.9z M1476.7-682.8v36.9h73.7v-36.9H1476.7z M1473.9-138.5v36.9h73.7v-36.9H1473.9z M1476.7-748v36.9h73.7V-748H1476.7z
			 M1473.9-203.7v36.9h73.7v-36.9C1547.6-203.7,1473.9-203.7,1473.9-203.7z"/>
	</g>
</g>
<g id="hbridge">
	<circle class="st3" cx="268.4" cy="492" r="5"/>
	<circle class="st3" cx="373.3" cy="492" r="5"/>
	<circle class="st3" cx="268.4" cy="596.9" r="5"/>
	<circle class="st3" cx="373.3" cy="596.9" r="5"/>
</g>
<g id="power_switch">
	<polygon id="power_x5F_switch" class="st4" points="332.5,107.8 337.4,107.8 337.4,72.7 332.5,72.7 332.5,70.1 314.8,70.1 
		314.8,72.7 310.9,72.7 310.9,107.8 314.8,107.8 314.8,110.4 332.5,110.4 	"/>
</g>
<g id="arduino_x5F_uno">
	<circle class="st5" cx="395" cy="597" r="5"/>
	<circle class="st5" cx="398.7" cy="460.3" r="5"/>
	<circle class="st5" cx="251" cy="553.9" r="5"/>
	<circle class="st5" cx="251" cy="474.8" r="5"/>
</g>
</svg>
