<?xml version="1.0" encoding="UTF-8"?>
<svg width="44px" height="97px" viewBox="0 0 44 97" version="1.1" xmlns="http://www.w3.org/2000/svg" xmlns:xlink="http://www.w3.org/1999/xlink">
    <!-- Generator: Sketch 53.2 (72643) - https://sketchapp.com -->
    <title>Combined Shape</title>
    <desc>Created with Sketch.</desc>
    <g id="Page-1" stroke="none" stroke-width="1" fill="none" fill-rule="evenodd" fill-opacity="0.5">
        <path d="M5.89770508,17.1630859 L0.0512695313,17.1630859 L0.0512695313,6.2565918 C0.438232422,4.63142904 1.02791341,3.39005534 1.8203125,2.5324707 C2.61271159,1.67488607 4.19580078,0.883707682 6.56958008,0.158935547 L36.9094238,0.158935547 C38.8887533,0.300537109 40.4401855,0.852539062 41.5637207,1.81494141 C42.6872559,2.77734375 43.4989421,4.0386556 43.9987793,5.59887695 L43.9987793,17.1630859 L38,17.1630859 L38,90.230957 C38.2374674,91.5634766 37.648112,92.9530436 36.2319336,94.3996582 C34.8157552,95.8462728 33.1981608,96.4363607 31.3791504,96.1699219 L13.385498,96.1699219 C10.884196,96.1699219 8.94165039,95.579834 7.55786133,94.3996582 C6.17407227,93.2194824 5.64339193,91.8299154 5.96582031,90.230957 L5.96582031,72.4335938 L5.89770508,17.1630859 Z M22.5,85 C24.9852814,85 27,82.9852814 27,80.5 C27,78.0147186 24.9852814,76 22.5,76 C20.0147186,76 18,78.0147186 18,80.5 C18,82.9852814 20.0147186,85 22.5,85 Z M22,39 C24.5758285,39 26.6967289,37.052221 26.9701847,34.5491794 C26.9898879,34.3688287 27,29.1855952 27,29 C27,26.2385763 24.7614237,24 22,24 C19.2385763,24 17,26.2385763 17,29 C17,29.1410968 17.0058444,34.2808286 17.0173043,34.4189664 C17.2301281,36.9843425 19.379673,39 22,39 Z" id="Combined-Shape" fill="#D8D8D8"></path>
    </g>
</svg>